<svg xmlns="http://www.w3.org/2000/svg" version="1.1" xmlns:xlink="http://www.w3.org/1999/xlink" xmlns:svgjs="http://svgjs.dev/svgjs" width="1000" height="1000" viewBox="0 0 1000 1000"><rect width="1000" height="1000" fill="#ffffff"></rect><g transform="matrix(0.7,0,0,0.7,149.57575757575756,282.1265587044535)"><svg viewBox="0 0 396 247" data-background-color="#ffffff" preserveAspectRatio="xMidYMid meet" height="623" width="1000" xmlns="http://www.w3.org/2000/svg" xmlns:xlink="http://www.w3.org/1999/xlink"><defs></defs><g id="tight-bounds" transform="matrix(1,0,0,1,0.2400000000000091,-0.09999999999999432)"><svg viewBox="0 0 395.52 247.2" height="247.2" width="395.52"><g><svg></svg></g><g><svg viewBox="0 0 395.52 247.2" height="247.2" width="395.52"><g transform="matrix(2.730031570619192, 0, 0, 2.730031570619192, 139.2526940765717, 1)"><svg xmlns="http://www.w3.org/2000/svg" xmlns:xlink="http://www.w3.org/1999/xlink" version="1.1" x="0" y="0" viewBox="29.568008422851562 6.003180980682373 42.86199951171875 89.81581115722656" enable-background="new 0 0 100 100" xml:space="preserve" height="89.81581115722656" width="42.86199951171875" class="icon-none" data-fill-palette-color="accent" id="none"><path d="M72.156 53.504c-0.338-4.9-1.142-9.725-2.202-14.519-0.303-1.369-0.215-2.82-0.437-4.214-0.336-2.093-0.727-4.182-1.201-6.248-0.729-3.181-3.798-4.147-6.383-2.311-0.773-0.617-0.976-1.066-1.742-1.632-0.229-0.171-0.857-0.397-1.146-0.473-1.244-0.327-1.301-0.375-1.189-1.618 0.289-3.307 0.666-6.606 0.941-9.914 0.209-2.511-0.82-5.681-3.849-6.434-0.069-0.017-1.052-0.232-1.985-0.089-2.995 0.914-3.826 3.259-4.262 6.01-0.89 5.63-0.939 11.284-0.663 16.954 0.05 1.031 0.112 2.062 0.061 3.135-0.342-0.721-0.679-1.445-1.028-2.163-2.508-5.151-5.259-10.158-8.822-14.674-1.803-2.285-5.185-2.783-7.157-0.952-0.678 0.63-0.967 1.386-1.311 2.339-0.105 0.713-0.213 1.299-0.213 1.898 0.339 1.854 1.531 3.262 2.488 4.796 3.409 5.461 6.36 11.16 8.86 17.091 0.114 0.272 0.215 0.551 0.349 0.892-1.49 0.772-2.542 1.904-3.006 3.502-0.353 1.213-0.289 2.426 0.153 3.612 0.907 2.435 2.921 3.659 5.952 3.524 0.134 0.531 0.38 1.092 0.403 1.66 0.566 14.127-2.362 27.428-9.453 39.736-0.644 1.117-0.423 1.763 0.797 2.407 0.164 0 0.328 0 0.491 0 0.406-0.415 0.943-0.763 1.197-1.257 1.394-2.705 2.847-5.393 4.042-8.188 3.483-8.144 5.256-16.699 5.667-25.525 0.146-3.138 0.39-6.308-0.373-9.436 0.022-0.016 0.061-0.061 0.109-0.076 2.936-0.9 5.871-1.807 8.816-2.681 0.179-0.053 0.501 0.079 0.641 0.231 1.803 1.965 4.524 1.995 6.318 0.025 0.339-0.374 0.605-0.813 0.788-1.061 0.954 0.092 1.804 0.333 2.593 0.208 0.786-0.125 1.514-0.616 2.272-0.949 0.031 0.153 0.096 0.39 0.128 0.631 0.606 4.569 0.912 9.152 0.86 13.764-0.126 11.07-2.532 21.636-6.887 31.784-0.569 1.327-0.479 1.698 0.659 2.529 0.219 0 0.437 0 0.654 0 0.402-0.479 0.943-0.896 1.183-1.446 4.11-9.445 6.521-19.299 7.028-29.604 0.01-0.176 0.088-0.35 0.133-0.526 0-2.617 0-5.235 0-7.853C72.338 55.432 72.222 54.469 72.156 53.504zM57.422 26.659c0.841-0.166 1.91 0.285 2.043 0.954 0.475 2.39 0.899 4.79 1.34 7.167-1.146 0.547-2.186 1.041-3.315 1.58-0.378-2.289-0.739-4.448-1.087-6.611-0.086-0.535-0.148-1.077-0.181-1.618C56.174 27.333 56.611 26.818 57.422 26.659zM50.859 17.329c0.187-2.216 0.578-4.419 0.959-6.613 0.212-1.217 1.12-1.981 2.069-1.957 0.979 0.026 1.86 0.776 1.978 2.034 0.113 1.222-0.035 2.474-0.122 3.708-0.229 3.255-0.479 6.51-0.747 9.763-0.024 0.293-0.154 0.644-0.357 0.847-1.032 1.034-1.345 2.266-1.125 3.67 0.4 2.552 0.779 5.108 1.219 7.654 0.131 0.76 0.025 1.211-0.805 1.416-0.754 0.186-1.476 0.507-2.36 0.823-0.191-1.982-0.397-3.792-0.535-5.604C50.635 27.827 50.417 22.576 50.859 17.329zM32.92 19.659c-0.381-0.572-0.507-1.373-0.567-2.083-0.058-0.702 0.382-1.229 1.077-1.471 0.762-0.265 1.96 0.023 2.457 0.691 1.168 1.573 2.362 3.135 3.409 4.789 3.501 5.535 6.379 11.385 8.673 17.522 0.057 0.152 0.099 0.31 0.188 0.598-1.401 0.35-2.739 0.683-4.144 1.033-0.388-0.91-0.748-1.782-1.129-2.645C40.053 31.684 36.815 25.496 32.92 19.659zM59.171 47.392c0.215-0.133 0.321-0.21 0.437-0.268 0.529-0.255 1.062-0.505 1.621-0.771C61.064 47.417 60.401 47.775 59.171 47.392zM61.964 42.812c-5.686 3.259-11.85 5.145-18.214 6.482-0.132 0.027-0.27 0.031-0.335 0.037-1.337-0.021-2.41-1.104-2.6-2.556-0.181-1.381 0.662-2.649 2.062-3.008 2.555-0.654 5.174-1.107 7.664-1.949 3.417-1.155 6.748-2.572 10.097-3.927 0.698-0.283 1.314-0.518 1.981-0.018 0.751 0.562 1.172 1.323 1.072 2.251C63.565 41.28 63.056 42.186 61.964 42.812zM66.99 43.788c-0.012 0.363-0.117 0.767-0.309 1.07-0.315 0.497-0.787 0.804-1.373 0.374-0.542-0.398-0.521-0.95-0.188-1.444 0.682-1.011 1.166-2.079 1.289-3.306 0.148-1.489-0.298-2.776-1.193-3.956-0.257-0.34-0.432-0.79-0.509-1.214-0.356-1.979-0.639-3.972-1.005-5.949-0.12-0.651 0.014-1.102 0.646-1.277 0.683-0.189 1.063 0.162 1.241 0.827 1.002 3.751 1.59 7.556 1.416 11.449C67.006 41.504 67.029 42.647 66.99 43.788z" fill="#000000" data-fill-palette-color="accent"></path></svg></g><rect width="348.05760000000004" height="77.11771947736031" fill="#ffffff" y="85.04114026131984" x="23.731199999999973" data-fill-palette-color="quaternary"></rect><g transform="matrix(1,0,0,1,39.55199999999999,97.4078270866866)"><svg viewBox="0 0 316.416 52.384345826626806" height="52.384345826626806" width="316.416"><g><svg viewBox="0 0 316.416 52.384345826626806" height="52.384345826626806" width="316.416"><g><svg viewBox="0 0 316.416 52.384345826626806" height="52.384345826626806" width="316.416"><g><svg viewBox="0 0 316.416 52.384345826626806" height="52.384345826626806" width="316.416"><g><svg viewBox="0 0 316.416 52.384345826626806" height="52.384345826626806" width="316.416"><g><svg viewBox="0 0 316.416 52.384345826626806" height="52.384345826626806" width="316.416"><g transform="matrix(1,0,0,1,0,0)"><svg width="316.416" viewBox="1.5 -35.5 217.44000244140625 36" height="52.384345826626806" data-palette-color="#ff0000"><path d="M15.6 0L15.6 0Q14.2 0 13.3-0.88 12.4-1.75 12.4-3.05L12.4-3.05 12.4-32.05 18.9-32.05 18.9-3.05Q18.9-1.75 17.98-0.88 17.05 0 15.6 0ZM26.75-29.25L4.55-29.25Q3.25-29.25 2.38-30.05 1.5-30.85 1.5-32.15L1.5-32.15Q1.5-33.45 2.38-34.23 3.25-35 4.55-35L4.55-35 26.75-35Q28.05-35 28.93-34.2 29.8-33.4 29.8-32.1L29.8-32.1Q29.8-30.8 28.93-30.03 28.05-29.25 26.75-29.25L26.75-29.25ZM74.9-35.15L74.9-35.15Q76.05-35.15 77.1-34.27 78.15-33.4 78.15-31.9L78.15-31.9Q78.15-31.45 78-30.9L78-30.9 68.15-1.9Q67.85-1 67.07-0.53 66.3-0.05 65.45 0L65.45 0Q64.6 0 63.77-0.5 62.95-1 62.5-1.95L62.5-1.95 55.1-18.75 55.55-18.45 48.25-1.95Q47.8-1 46.97-0.5 46.15 0 45.3 0L45.3 0Q44.5-0.05 43.7-0.53 42.9-1 42.6-1.9L42.6-1.9 32.75-30.9Q32.6-31.45 32.6-31.9L32.6-31.9Q32.6-33.4 33.67-34.27 34.75-35.15 35.9-35.15L35.9-35.15Q36.85-35.15 37.67-34.65 38.5-34.15 38.8-33.2L38.8-33.2 46.75-9.1 45.65-9.15 52.75-26.2Q53.15-27.1 53.9-27.63 54.65-28.15 55.6-28.1L55.6-28.1Q56.55-28.15 57.3-27.63 58.05-27.1 58.4-26.2L58.4-26.2 64.9-9.9 64.1-9.4 71.95-33.2Q72.25-34.15 73.1-34.65 73.95-35.15 74.9-35.15ZM114.65-17.5L114.65-17.5Q114.65-13.75 113.4-10.5 112.15-7.25 109.87-4.78 107.6-2.3 104.47-0.9 101.35 0.5 97.65 0.5L97.65 0.5Q93.95 0.5 90.85-0.9 87.75-2.3 85.47-4.78 83.2-7.25 81.95-10.5 80.7-13.75 80.7-17.5L80.7-17.5Q80.7-21.25 81.95-24.5 83.2-27.75 85.47-30.23 87.75-32.7 90.85-34.1 93.95-35.5 97.65-35.5L97.65-35.5Q101.35-35.5 104.47-34.1 107.6-32.7 109.87-30.23 112.15-27.75 113.4-24.5 114.65-21.25 114.65-17.5ZM108.15-17.5L108.15-17.5Q108.15-20.85 106.8-23.58 105.45-26.3 103.1-27.9 100.75-29.5 97.65-29.5L97.65-29.5Q94.55-29.5 92.2-27.9 89.85-26.3 88.52-23.6 87.2-20.9 87.2-17.5L87.2-17.5Q87.2-14.15 88.52-11.43 89.85-8.7 92.2-7.1 94.55-5.5 97.65-5.5L97.65-5.5Q100.75-5.5 103.1-7.1 105.45-8.7 106.8-11.43 108.15-14.15 108.15-17.5ZM131.64 0.5L131.64 0.5Q128.14 0.5 125.34-0.38 122.54-1.25 119.99-3.45L119.99-3.45Q119.34-4 118.99-4.7 118.64-5.4 118.64-6.1L118.64-6.1Q118.64-7.25 119.47-8.13 120.29-9 121.54-9L121.54-9Q122.49-9 123.24-8.4L123.24-8.4Q125.14-6.85 127.02-6.05 128.89-5.25 131.64-5.25L131.64-5.25Q133.49-5.25 135.04-5.83 136.59-6.4 137.54-7.38 138.49-8.35 138.49-9.6L138.49-9.6Q138.49-11.1 137.59-12.15 136.69-13.2 134.84-13.93 132.99-14.65 130.14-15.05L130.14-15.05Q127.44-15.45 125.39-16.28 123.34-17.1 121.97-18.38 120.59-19.65 119.89-21.38 119.19-23.1 119.19-25.25L119.19-25.25Q119.19-28.5 120.87-30.8 122.54-33.1 125.39-34.3 128.24-35.5 131.69-35.5L131.69-35.5Q134.94-35.5 137.72-34.52 140.49-33.55 142.24-32.05L142.24-32.05Q143.69-30.9 143.69-29.4L143.69-29.4Q143.69-28.3 142.84-27.4 141.99-26.5 140.84-26.5L140.84-26.5Q140.09-26.5 139.49-26.95L139.49-26.95Q138.69-27.65 137.34-28.28 135.99-28.9 134.49-29.33 132.99-29.75 131.69-29.75L131.69-29.75Q129.54-29.75 128.07-29.2 126.59-28.65 125.84-27.7 125.09-26.75 125.09-25.5L125.09-25.5Q125.09-24 125.97-23.03 126.84-22.05 128.49-21.48 130.14-20.9 132.44-20.45L132.44-20.45Q135.44-19.9 137.72-19.15 139.99-18.4 141.49-17.23 142.99-16.05 143.74-14.28 144.49-12.5 144.49-9.95L144.49-9.95Q144.49-6.7 142.69-4.35 140.89-2 137.97-0.75 135.04 0.5 131.64 0.5ZM175.09-35.05L175.09-35.05Q176.39-35.05 177.19-34.18 177.99-33.3 177.99-32L177.99-32 177.99-13.9Q177.99-9.75 176.22-6.55 174.44-3.35 171.34-1.55 168.24 0.25 164.14 0.25L164.14 0.25Q160.04 0.25 156.92-1.55 153.79-3.35 152.02-6.55 150.24-9.75 150.24-13.9L150.24-13.9 150.24-32Q150.24-33.3 151.14-34.18 152.04-35.05 153.44-35.05L153.44-35.05Q154.59-35.05 155.52-34.18 156.44-33.3 156.44-32L156.44-32 156.44-13.9Q156.44-11.4 157.52-9.58 158.59-7.75 160.37-6.75 162.14-5.75 164.14-5.75L164.14-5.75Q166.29-5.75 168.14-6.75 169.99-7.75 171.14-9.58 172.29-11.4 172.29-13.9L172.29-13.9 172.29-32Q172.29-33.3 173.04-34.18 173.79-35.05 175.09-35.05ZM188.64-35.05L188.64-35.05Q189.34-35.05 190.11-34.68 190.89-34.3 191.29-33.7L191.29-33.7 203.44-15 200.94-15.1 213.39-33.7Q214.34-35.05 215.84-35.05L215.84-35.05Q217.04-35.05 217.99-34.2 218.94-33.35 218.94-32L218.94-32 218.94-3.05Q218.94-1.75 218.09-0.88 217.24 0 215.84 0L215.84 0Q214.44 0 213.56-0.88 212.69-1.75 212.69-3.05L212.69-3.05 212.69-26.6 214.64-26.15 204.44-10.6Q203.99-10.05 203.31-9.65 202.64-9.25 201.94-9.3L201.94-9.3Q201.29-9.25 200.61-9.65 199.94-10.05 199.49-10.6L199.49-10.6 189.94-25.7 191.24-28.35 191.24-3.05Q191.24-1.75 190.44-0.88 189.64 0 188.34 0L188.34 0Q187.09 0 186.29-0.88 185.49-1.75 185.49-3.05L185.49-3.05 185.49-32Q185.49-33.25 186.41-34.15 187.34-35.05 188.64-35.05Z" opacity="1" transform="matrix(1,0,0,1,0,0)" fill="#000000" class="undefined-text-0" data-fill-palette-color="primary" id="text-0"></path></svg></g></svg></g></svg></g></svg></g><g></g></svg></g></svg></g></svg></g></svg></g></svg><rect width="395.52" height="247.2" fill="none" stroke="none" visibility="hidden"></rect></g></svg></g></svg>